<?xml version="1.0" standalone="no"?>
<!DOCTYPE svg PUBLIC "-//W3C//DTD SVG 20010904//EN"
 "http://www.w3.org/TR/2001/REC-SVG-20010904/DTD/svg10.dtd">
<svg version="1.0" xmlns="http://www.w3.org/2000/svg"
 width="200.000000pt" height="200.000000pt" viewBox="0 0 200.000000 200.000000"
 preserveAspectRatio="xMidYMid meet">
<metadata>
Created by potrace 1.11, written by Peter Selinger 2001-2013
</metadata>
<g transform="translate(0.000000,200.000000) scale(0.100000,-0.100000)"
fill="#000000" stroke="none">
<path d="M1290 1652 c-48 -3 -171 -28 -320 -62 -69 -16 -143 -32 -165 -35 -22
-3 -47 -9 -55 -12 -8 -3 -77 -8 -153 -12 -156 -9 -151 -6 -235 -116 -25 -33
-66 -80 -92 -105 -38 -37 -215 -197 -229 -207 -2 -2 -2 -6 2 -9 3 -3 75 29
160 71 150 76 155 78 228 78 186 0 379 -119 517 -321 111 -161 219 -232 382
-248 169 -16 235 -77 215 -195 -10 -57 -54 -103 -125 -131 -33 -13 -59 -27
-57 -33 5 -14 225 -14 237 0 5 6 14 33 20 60 17 76 56 137 141 223 87 89 135
159 169 247 18 48 23 81 24 170 1 118 -14 192 -58 288 -104 226 -352 370 -606
349z m-740 -267 c0 -27 -26 -40 -46 -24 -17 14 -18 31 -3 46 17 17 49 3 49
-22z"/>
</g>
</svg>
